<?xml version="1.0" encoding="iso-8859-1"?>
<!-- Generator: Adobe Illustrator 19.0.0, SVG Export Plug-In . SVG Version: 6.00 Build 0)  -->
<svg version="1.1" id="Capa_1" xmlns="http://www.w3.org/2000/svg" xmlns:xlink="http://www.w3.org/1999/xlink" x="0px" y="0px"
	 viewBox="0 0 512.006 512.006" style="enable-background:new 0 0 512.006 512.006;" xml:space="preserve">
<path style="fill:#607D8B;" d="M349.635,423.561c-2.92-4.722-8.08-7.592-13.632-7.584h-160c-8.837,0-16,7.164-15.999,16.001
	c0,2.488,0.581,4.943,1.695,7.167l32,64c2.713,5.413,8.249,8.832,14.304,8.832h96c6.055,0,11.591-3.419,14.304-8.832l32-64
	C352.802,434.186,352.547,428.288,349.635,423.561z"/>
<g>
	<path style="fill:#F44336;" d="M172.259,240.425c-60.872,12.988-105.337,65.379-108.256,127.552v128
		c0.001,6.475,3.904,12.311,9.888,14.784c1.941,0.793,4.016,1.205,6.112,1.216c4.246,0.008,8.322-1.673,11.328-4.672l96-96
		c2.999-3.006,4.68-7.082,4.672-11.328v-144c-0.002-8.837-7.167-15.998-16.004-15.996
		C174.739,239.981,173.484,240.13,172.259,240.425z"/>
	<path style="fill:#F44336;" d="M339.715,240.425c-4.76-1.146-9.783-0.049-13.632,2.976c-3.846,3.039-6.087,7.674-6.08,12.576v144
		c-0.008,4.246,1.673,8.322,4.672,11.328l96,96c6.24,6.256,16.371,6.269,22.627,0.029c3.016-3.009,4.708-7.096,4.701-11.357v-128
		C445.08,305.794,400.599,253.4,339.715,240.425z"/>
</g>
<path style="fill:#ECEFF1;" d="M266.051,3.529c-5.918-4.607-14.21-4.607-20.128,0c-54.424,43.387-86.063,109.246-85.92,178.848
	v249.6c0,8.837,7.163,16,16,16h160c8.837,0,16-7.163,16-16v-249.6C352.147,112.768,320.494,46.904,266.051,3.529z"/>
<circle style="fill:#F44336;" cx="256.003" cy="143.977" r="48"/>
<path d="M336.003,447.977h-160c-8.837,0-16-7.163-16-16v-249.6c-0.153-69.634,31.529-135.52,86.016-178.88
	c5.839-4.663,14.129-4.663,19.968,0c54.487,43.36,86.169,109.246,86.016,178.88v249.6
	C352.003,440.814,344.839,447.977,336.003,447.977z M192.003,415.977h128v-233.6c0.125-55.307-23.119-108.094-64-145.344
	c-40.881,37.25-64.125,90.037-64,145.344V415.977z"/>
<path d="M80.003,511.977c-2.097-0.007-4.172-0.42-6.112-1.216c-5.984-2.473-9.887-8.309-9.888-14.784v-128
	c2.923-62.183,47.404-114.577,108.288-127.552c8.595-2.05,17.225,3.256,19.275,11.851c0.289,1.212,0.436,2.454,0.437,3.701v144
	c0.008,4.246-1.673,8.322-4.672,11.328l-96,96C88.324,510.304,84.249,511.985,80.003,511.977z M160.003,278.633
	c-37.588,13.903-62.931,49.282-64,89.344v89.344l64-64V278.633z"/>
<path d="M432.003,511.977c-4.246,0.008-8.322-1.673-11.328-4.672l-96-96c-2.999-3.006-4.68-7.082-4.672-11.328v-144
	c0.006-8.837,7.175-15.995,16.011-15.989c1.246,0.001,2.488,0.147,3.701,0.437c60.884,12.975,105.365,65.369,108.288,127.552v128
	c-0.001,6.475-3.904,12.311-9.888,14.784C436.175,511.557,434.1,511.97,432.003,511.977z M352.003,393.353l64,64v-89.376
	c-1.285-39.959-26.56-75.192-64-89.216V393.353z"/>
<path d="M304.003,511.977h-96c-6.055,0-11.591-3.419-14.304-8.832l-32-64c-3.959-7.9-0.764-17.514,7.137-21.473
	c2.225-1.115,4.679-1.695,7.167-1.695h160c8.837,0,16,7.164,15.999,16.001c0,2.488-0.581,4.943-1.695,7.167l-32,64
	C315.594,508.559,310.058,511.977,304.003,511.977z M217.891,479.977h76.224l16-32H201.891L217.891,479.977z"/>
<path d="M256.003,191.977c-26.51,0-48-21.49-48-48s21.49-48,48-48s48,21.49,48,48S282.513,191.977,256.003,191.977z
	 M256.003,127.977c-8.837,0-16,7.163-16,16s7.163,16,16,16c8.837,0,16-7.163,16-16S264.839,127.977,256.003,127.977z"/>
<g>
</g>
<g>
</g>
<g>
</g>
<g>
</g>
<g>
</g>
<g>
</g>
<g>
</g>
<g>
</g>
<g>
</g>
<g>
</g>
<g>
</g>
<g>
</g>
<g>
</g>
<g>
</g>
<g>
</g>
</svg>
