<?xml version="1.0" encoding="iso-8859-1"?>
<!-- Generator: Adobe Illustrator 19.0.0, SVG Export Plug-In . SVG Version: 6.00 Build 0)  -->
<svg version="1.1" id="Capa_1" xmlns="http://www.w3.org/2000/svg" xmlns:xlink="http://www.w3.org/1999/xlink" x="0px" y="0px"
	 viewBox="0 0 512.032 512.032" style="enable-background:new 0 0 512.032 512.032;" xml:space="preserve">
<g>
	<rect x="16.032" y="192.032" style="fill:#1976D2;" width="114.496" height="304"/>
	<path style="fill:#1976D2;" d="M410.4,196.16c-1.216-0.384-2.368-0.8-3.648-1.152s-3.2-0.608-4.64-0.896
		c-6.761-1.382-13.643-2.079-20.544-2.08l0,0c-42.246-3.179-83.001,16.315-107.04,51.2v-51.2H160.032v304h114.496v-160
		c0,0,70.4-120.512,107.008-32v192h114.496V290.496C496.032,237.312,459.584,208.992,410.4,196.16z"/>
	<circle style="fill:#1976D2;" cx="72.032" cy="72.032" r="48"/>
</g>
<path d="M123.36,512.032H16.032c-8.837,0-16-7.163-16-16v-304c0-8.837,7.163-16,16-16H123.36c8.837,0,16,7.163,16,16v304
	C139.36,504.869,132.197,512.032,123.36,512.032z M32.032,480.032h75.328v-272H32.032V480.032z"/>
<path d="M496.032,512.032H388.704c-8.837,0-16-7.163-16-16V315.36c-4.992-10.976-10.848-16.896-17.408-17.664
	c-19.2-1.92-50.976,30.176-65.92,49.632v148.704c0,8.837-7.163,16-16,16H166.048c-8.837,0-16-7.163-16-16v-304
	c0-8.837,7.163-16,16-16h107.328c8.837,0,16,7.163,16,16v22.656c27.296-24.471,62.544-38.206,99.2-38.656
	c7.523-0.013,15.028,0.738,22.4,2.24l5.056,0.96l3.968,1.184l0,0c54.119,14.163,91.908,63.003,92.032,118.944v196.672
	C512.032,504.869,504.869,512.032,496.032,512.032z M404.704,480.032h75.328V299.36c-0.059-41.502-28.142-77.727-68.32-88.128
	h-0.832l-1.024-0.352l-4.736-1.088c-5.403-1.1-10.902-1.657-16.416-1.664c-41.063,2.003-78.88,22.921-102.4,56.64
	c-5.302,7.069-15.331,8.502-22.4,3.2c-4.029-3.022-6.4-7.764-6.4-12.8v-47.136h-75.456v272h75.328V342.048
	c-0.01-3.349,1.03-6.618,2.976-9.344c5.312-7.392,52.832-72.384,98.624-66.784c21.322,3.608,38.654,19.183,44.512,40
	c0.802,1.938,1.215,4.015,1.216,6.112V480.032z"/>
<path d="M68.544,137.024C30.706,137.042,0.018,106.382,0,68.544S30.642,0.018,68.48,0s68.526,30.642,68.544,68.48
	c0,0.021,0,0.043,0,0.064C136.971,106.343,106.343,136.971,68.544,137.024z M68.544,32.032C48.379,32.014,32.018,48.347,32,68.512
	c-0.018,20.165,16.315,36.526,36.48,36.544c20.165,0.018,36.526-16.315,36.544-36.48c0-0.011,0-0.021,0-0.032
	C105.006,48.399,88.689,32.067,68.544,32.032z"/>
<g>
</g>
<g>
</g>
<g>
</g>
<g>
</g>
<g>
</g>
<g>
</g>
<g>
</g>
<g>
</g>
<g>
</g>
<g>
</g>
<g>
</g>
<g>
</g>
<g>
</g>
<g>
</g>
<g>
</g>
</svg>
