<?xml version="1.0" encoding="iso-8859-1"?>
<!-- Generator: Adobe Illustrator 19.0.0, SVG Export Plug-In . SVG Version: 6.00 Build 0)  -->
<svg version="1.1" id="Capa_1" xmlns="http://www.w3.org/2000/svg" xmlns:xlink="http://www.w3.org/1999/xlink" x="0px" y="0px"
	 viewBox="0 0 512 512" style="enable-background:new 0 0 512 512;" xml:space="preserve">
<path style="fill:#B0BEC5;" d="M432.035,288c-26.51,0-48-21.49-48-48s21.49-48,48-48s48,21.49,48,48S458.545,288,432.035,288z
	 M432.035,224c-8.837,0-16,7.163-16,16s7.163,16,16,16s16-7.163,16-16S440.872,224,432.035,224z"/>
<path style="fill:#607D8B;" d="M192.035,0h-128c-5.909,0.004-11.335,3.264-14.112,8.48c-45.278,84.674-45.278,186.366,0,271.04
	c2.777,5.216,8.203,8.476,14.112,8.48h128c8.837,0,16-7.163,16-16V16C208.035,7.163,200.872,0,192.035,0z"/>
<path style="fill:#CFD8DC;" d="M288.035,160h96c8.837,0,16,7.163,16,16v96c0,8.837-7.163,16-16,16h-96c-8.837,0-16-7.163-16-16v-96
	C272.035,167.163,279.199,160,288.035,160z"/>
<path style="fill:#F44336;" d="M349.187,6.912c-5.543-7.264-15.925-8.659-23.188-3.116c-1.173,0.895-2.221,1.943-3.116,3.116
	C306.118,28.468,294.229,53.404,288.035,80c0,26.51,21.49,48,48,48s48-21.49,48-48C377.842,53.404,365.952,28.468,349.187,6.912z"/>
<path style="fill:#455A64;" d="M480.035,256h-288c-8.837,0-16,7.163-16,16v176c0,35.346,28.654,64,64,64h192
	c35.346,0,64-28.654,64-64V272C496.035,263.163,488.872,256,480.035,256z"/>
<path d="M432.035,512h-192c-35.346,0-64-28.654-64-64V272c0-8.837,7.163-16,16-16h288c8.837,0,16,7.163,16,16v176
	C496.035,483.346,467.382,512,432.035,512z M208.035,288v160c0,17.673,14.327,32,32,32h192c17.673,0,32-14.327,32-32V288H208.035z"
	/>
<path d="M192.035,288h-128c-8.837,0-16-7.163-16-16s7.163-16,16-16h112V32h-112c-8.837,0-16-7.163-16-16s7.163-16,16-16h128
	c8.837,0,16,7.163,16,16v256C208.035,280.837,200.872,288,192.035,288z"/>
<path d="M64.035,288c-5.909-0.004-11.335-3.264-14.112-8.48c-45.25-84.681-45.25-186.359,0-271.04
	C54.344,0.829,64.13-1.79,71.781,2.63c7.283,4.208,10.064,13.336,6.366,20.89c-40.164,75.299-40.164,165.661,0,240.96
	c4.153,7.8,1.197,17.489-6.603,21.643C69.233,287.354,66.654,287.998,64.035,288z"/>
<path d="M384.035,288h-96c-8.837,0-16-7.163-16-16v-96c0-8.837,7.163-16,16-16h96c8.837,0,16,7.163,16,16v96
	C400.035,280.837,392.872,288,384.035,288z M304.035,256h64v-64h-64V256z"/>
<path d="M432.035,288c-26.51,0-48-21.49-48-48s21.49-48,48-48s48,21.49,48,48S458.545,288,432.035,288z M432.035,224
	c-8.837,0-16,7.163-16,16s7.163,16,16,16s16-7.163,16-16S440.872,224,432.035,224z"/>
<path d="M336.035,128c-26.51,0-48-21.49-48-48c6.194-26.596,18.083-51.532,34.848-73.088c5.543-7.264,15.925-8.659,23.188-3.116
	c1.173,0.895,2.221,1.943,3.116,3.116C365.952,28.468,377.842,53.404,384.035,80C384.035,106.51,362.545,128,336.035,128z
	 M336.035,45.664c-7.122,10.523-12.523,22.114-16,34.336c0,8.837,7.163,16,16,16s16-7.163,16-16
	C348.556,67.779,343.155,56.189,336.035,45.664z"/>
<g>
</g>
<g>
</g>
<g>
</g>
<g>
</g>
<g>
</g>
<g>
</g>
<g>
</g>
<g>
</g>
<g>
</g>
<g>
</g>
<g>
</g>
<g>
</g>
<g>
</g>
<g>
</g>
<g>
</g>
</svg>
