<?xml version="1.0" encoding="iso-8859-1"?>
<!-- Generator: Adobe Illustrator 19.0.0, SVG Export Plug-In . SVG Version: 6.00 Build 0)  -->
<svg version="1.1" id="Capa_1" xmlns="http://www.w3.org/2000/svg" xmlns:xlink="http://www.w3.org/1999/xlink" x="0px" y="0px"
	 viewBox="0 0 512 512" style="enable-background:new 0 0 512 512;" xml:space="preserve">
<path style="fill:#FFC107;" d="M176,223.879h160c8.837,0,16,7.163,16,16v192c0,8.837-7.163,16-16,16H176c-8.837,0-16-7.163-16-16
	v-192C160,231.042,167.163,223.879,176,223.879z"/>
<path style="fill:#F44336;" d="M267.904,5.191c-6.32-6.574-16.773-6.781-23.347-0.461c-0.157,0.151-0.31,0.304-0.461,0.461
	C235.392,14.887,192,64.807,192,95.879c0,35.346,28.654,64,64,64s64-28.654,64-64C320,64.807,276.608,14.887,267.904,5.191z"/>
<path style="fill:#FFD54F;" d="M336,191.879H176c-8.837,0-16,7.163-16,16v48c0,8.837,7.163,16,16,16
	c14.446-0.674,28.52,4.693,38.848,14.816c22.444,22.719,59.055,22.942,81.774,0.498c0.167-0.165,0.333-0.331,0.498-0.498
	c10.344-10.118,24.426-15.484,38.88-14.816c8.837,0,16-7.163,16-16v-48C352,199.042,344.837,191.879,336,191.879z"/>
<path style="fill:#ECEFF1;" d="M496,415.879H16c-8.837,0-16,7.163-16,16v32c0,26.51,21.49,48,48,48l0,0h416c26.51,0,48-21.49,48-48
	l0,0v-32C512,423.042,504.837,415.879,496,415.879z"/>
<path d="M464,511.879H48c-26.51,0-48-21.49-48-48l0,0v-32c0-8.837,7.163-16,16-16h480c8.837,0,16,7.163,16,16v32
	C512,490.388,490.51,511.879,464,511.879L464,511.879z M32,447.879v16c0,8.837,7.163,16,16,16h416c8.837,0,16-7.163,16-16v-16H32z"
	/>
<path d="M336,447.879H176c-8.837,0-16-7.163-16-16v-224c0-8.837,7.163-16,16-16h160c8.837,0,16,7.163,16,16v224
	C352,440.715,344.837,447.879,336,447.879z M192,415.879h128v-192H192V415.879z"/>
<path d="M256,159.879c-35.346,0-64-28.654-64-64c0-31.072,43.392-80.992,52.096-90.688c6.32-6.574,16.773-6.781,23.347-0.461
	c0.157,0.151,0.31,0.304,0.461,0.461C276.608,14.887,320,64.807,320,95.879C320,131.225,291.346,159.879,256,159.879z M256,40.647
	c-14.677,15.776-25.614,34.653-32,55.232c0,17.673,14.327,32,32,32s32-14.327,32-32C281.542,75.331,270.614,56.469,256,40.647z"/>
<path d="M256,303.879c-15.399-0.309-30.106-6.45-41.152-17.184c-10.328-10.123-24.402-15.49-38.848-14.816c-8.837,0-16-7.163-16-16
	c0-8.837,7.163-16,16-16l0,0c21.827-0.703,43.056,7.205,59.104,22.016c8.448,6.912,12.544,9.984,20.896,9.984
	s12.448-3.2,20.896-9.984c16.048-14.811,37.277-22.719,59.104-22.016c8.837,0,16,7.163,16,16c0,8.837-7.163,16-16,16
	c-14.452-0.652-28.528,4.712-38.88,14.816C286.099,297.445,271.394,303.59,256,303.879z"/>
<g>
</g>
<g>
</g>
<g>
</g>
<g>
</g>
<g>
</g>
<g>
</g>
<g>
</g>
<g>
</g>
<g>
</g>
<g>
</g>
<g>
</g>
<g>
</g>
<g>
</g>
<g>
</g>
<g>
</g>
</svg>
